<?xml version="1.0" encoding="UTF-8" ?>

<!-- XML in easy steps - Page 148. -->

<svg	version ="1.1" baseProfile = "full"
	xmlns ="http://www.w3.org/2000/svg"
	xmlns:xlink = "http://www.w3.org/1999/xlink" 
	width="95" height="50" viewBox="0,0 247,130">

<script type = "text/javascript" xlink:href ="embed.js" />

<g onclick = "info('en','child')"
	onmouseover = "this.style.cursor='pointer'">

<rect x = "0" y = "0" width = "247px" height = "130px" fill = "white" stroke = "none" />

<g id="stripes">
	<rect fill="#213164" width="99" height="70"/>
	<rect x="99" fill="#BF2134" width="148" height="10"/>
	<rect x="99" y="20" fill="#BF2134" width="148" height="10"/>
	<rect x="99" y="40" fill="#BF2134" width="148" height="10"/>
	<rect x="99" y="60" fill="#BF2134" width="148" height="10"/>
	<rect y="80" fill="#BF2134" width="247" height="10"/>
	<rect y="100" fill="#BF2134" width="247" height="10"/>
	<rect y="120" fill="#BF2134" width="247" height="10"/>
</g>

<!-- machine-generated stars. -->
<g id="stars">
	<polygon fill="#FFFBF1" points="6.791,5.459 7.887,3.204 9.01,5.446 11.493,5.792 9.708,7.552 10.146,10.021 7.921,8.867 
		5.708,10.047 6.118,7.573 4.312,5.834 	"/>
	<polygon fill="#FFFBF1" points="23.625,5.376 24.721,3.121 25.843,5.363 28.327,5.708 26.542,7.469 26.98,9.938 24.754,8.784 
		22.542,9.964 22.951,7.49 21.146,5.751 	"/>
	<polygon fill="#FFFBF1" points="40.875,5.251 41.971,2.996 43.093,5.238 45.577,5.583 43.792,7.344 44.23,9.813 42.004,8.659 
		39.792,9.839 40.201,7.365 38.396,5.626 	"/>
	<polygon fill="#FFFBF1" points="57.125,5.626 58.221,3.371 59.343,5.613 61.827,5.958 60.042,7.719 60.48,10.188 58.254,9.034 
		56.042,10.214 56.451,7.74 54.646,6.001 	"/>
	<polygon fill="#FFFBF1" points="74.369,5.501 75.465,3.246 76.587,5.488 79.071,5.833 77.286,7.594 77.724,10.063 75.499,8.909 
		73.286,10.089 73.695,7.615 71.89,5.876 	"/>
	<polygon fill="#FFFBF1" points="90.124,5.626 91.22,3.371 92.343,5.613 94.826,5.958 93.041,7.719 93.479,10.188 91.254,9.034 
		89.042,10.214 89.451,7.74 87.645,6.001 	"/>
	<polygon fill="#FFFBF1" points="15.095,12.886 16.191,10.631 17.314,12.873 19.797,13.219 18.012,14.979 18.451,17.448 
		16.225,16.294 14.013,17.474 14.422,15 12.616,13.261 	"/>
	<polygon fill="#FFFBF1" points="31.75,12.891 32.846,10.636 33.969,12.877 36.452,13.223 34.667,14.984 35.105,17.452 
		32.88,16.298 30.667,17.479 31.077,15.005 29.271,13.266 	"/>
	<polygon fill="#FFFBF1" points="48.625,13.155 49.721,10.9 50.843,13.142 53.327,13.488 51.542,15.249 51.98,17.717 49.754,16.563 
		47.542,17.743 47.951,15.27 46.146,13.53 	"/>
	<polygon fill="#FFFBF1" points="64.999,12.891 66.095,10.636 67.218,12.877 69.701,13.223 67.916,14.984 68.354,17.452 
		66.129,16.298 63.917,17.479 64.326,15.005 62.52,13.266 	"/>
	<polygon fill="#FFFBF1" points="81.875,13.016 82.971,10.761 84.094,13.002 86.577,13.348 84.792,15.109 85.23,17.577 
		83.005,16.423 80.792,17.604 81.202,15.13 79.396,13.391 	"/>
	<polygon fill="#FFFBF1" points="6.791,19.724 7.887,17.469 9.01,19.71 11.493,20.056 9.708,21.817 10.146,24.285 7.921,23.131 
		5.708,24.312 6.118,21.838 4.312,20.099 	"/>
	<polygon fill="#FFFBF1" points="23.625,19.641 24.721,17.386 25.843,19.627 28.327,19.973 26.542,21.734 26.98,24.202 
		24.754,23.048 22.542,24.229 22.951,21.755 21.146,20.016 	"/>
	<polygon fill="#FFFBF1" points="40.875,19.516 41.971,17.261 43.093,19.502 45.577,19.848 43.792,21.609 44.23,24.077 
		42.004,22.923 39.792,24.104 40.201,21.63 38.396,19.891 	"/>
	<polygon fill="#FFFBF1" points="57.125,19.891 58.221,17.636 59.343,19.877 61.827,20.223 60.042,21.984 60.48,24.452 
		58.254,23.298 56.042,24.479 56.451,22.005 54.646,20.266 	"/>
	<polygon fill="#FFFBF1" points="74.369,19.766 75.465,17.511 76.587,19.752 79.071,20.098 77.286,21.859 77.724,24.327 
		75.499,23.173 73.286,24.354 73.695,21.88 71.89,20.141 	"/>
	<polygon fill="#FFFBF1" points="90.124,19.891 91.22,17.636 92.343,19.877 94.826,20.223 93.041,21.984 93.479,24.452 
		91.254,23.298 89.042,24.479 89.451,22.005 87.645,20.266 	"/>
	<polygon fill="#FFFBF1" points="15.095,27.151 16.191,24.896 17.314,27.138 19.797,27.483 18.012,29.244 18.451,31.712 
		16.225,30.559 14.013,31.739 14.422,29.265 12.616,27.526 	"/>
	<polygon fill="#FFFBF1" points="31.75,27.155 32.846,24.9 33.969,27.142 36.452,27.488 34.667,29.249 35.105,31.717 32.88,30.563 
		30.667,31.743 31.077,29.27 29.271,27.53 	"/>
	<polygon fill="#FFFBF1" points="48.625,27.42 49.721,25.165 50.843,27.407 53.327,27.752 51.542,29.513 51.98,31.981 
		49.754,30.828 47.542,32.008 47.951,29.534 46.146,27.795 	"/>
	<polygon fill="#FFFBF1" points="64.999,27.155 66.095,24.9 67.218,27.142 69.701,27.488 67.916,29.249 68.354,31.717 
		66.129,30.563 63.917,31.743 64.326,29.27 62.52,27.53 	"/>
	<polygon fill="#FFFBF1" points="81.875,27.28 82.971,25.025 84.094,27.267 86.577,27.613 84.792,29.374 85.23,31.842 
		83.005,30.688 80.792,31.868 81.202,29.395 79.396,27.655 	"/>
	<polygon fill="#FFFBF1" points="6.727,34.459 7.823,32.204 8.946,34.446 11.429,34.792 9.644,36.552 10.083,39.021 7.857,37.867 
		5.645,39.047 6.054,36.573 4.248,34.834 	"/>
	<polygon fill="#FFFBF1" points="23.561,34.376 24.657,32.121 25.779,34.363 28.263,34.708 26.478,36.469 26.916,38.938 
		24.69,37.784 22.478,38.964 22.887,36.49 21.082,34.751 	"/>
	<polygon fill="#FFFBF1" points="40.811,34.251 41.907,31.996 43.029,34.238 45.513,34.583 43.728,36.344 44.166,38.813 
		41.94,37.659 39.728,38.839 40.137,36.365 38.332,34.626 	"/>
	<polygon fill="#FFFBF1" points="57.061,34.626 58.157,32.371 59.279,34.613 61.763,34.958 59.978,36.719 60.416,39.188 
		58.19,38.034 55.978,39.214 56.387,36.74 54.582,35.001 	"/>
	<polygon fill="#FFFBF1" points="74.305,34.501 75.401,32.246 76.523,34.488 79.007,34.833 77.222,36.594 77.66,39.063 
		75.435,37.909 73.222,39.089 73.631,36.615 71.826,34.876 	"/>
	<polygon fill="#FFFBF1" points="90.06,34.626 91.156,32.371 92.279,34.613 94.762,34.958 92.977,36.719 93.416,39.188 
		91.19,38.034 88.978,39.214 89.387,36.74 87.581,35.001 	"/>
	<polygon fill="#FFFBF1" points="15.031,41.886 16.127,39.631 17.25,41.873 19.733,42.219 17.948,43.979 18.387,46.448 
		16.161,45.294 13.949,46.474 14.358,44 12.552,42.261 	"/>
	<polygon fill="#FFFBF1" points="31.686,41.891 32.782,39.636 33.905,41.877 36.388,42.223 34.603,43.984 35.042,46.452 
		32.816,45.298 30.604,46.479 31.013,44.005 29.207,42.266 	"/>
	<polygon fill="#FFFBF1" points="48.561,42.155 49.657,39.9 50.779,42.142 53.263,42.488 51.478,44.249 51.916,46.717 49.69,45.563 
		47.478,46.743 47.887,44.27 46.082,42.53 	"/>
	<polygon fill="#FFFBF1" points="64.935,41.891 66.031,39.636 67.154,41.877 69.637,42.223 67.852,43.984 68.291,46.452 
		66.065,45.298 63.853,46.479 64.262,44.005 62.456,42.266 	"/>
	<polygon fill="#FFFBF1" points="81.811,42.016 82.907,39.761 84.03,42.002 86.513,42.348 84.728,44.109 85.167,46.577 
		82.941,45.423 80.729,46.604 81.138,44.13 79.332,42.391 	"/>
	<polygon fill="#FFFBF1" points="6.791,47.402 7.887,45.147 9.01,47.389 11.493,47.734 9.708,49.495 10.146,51.963 7.921,50.81 
		5.708,51.99 6.118,49.516 4.312,47.777 	"/>
	<polygon fill="#FFFBF1" points="23.625,47.319 24.721,45.064 25.843,47.306 28.327,47.651 26.542,49.412 26.98,51.88 
		24.754,50.727 22.542,51.907 22.951,49.433 21.146,47.694 	"/>
	<polygon fill="#FFFBF1" points="40.875,47.194 41.971,44.939 43.093,47.181 45.577,47.526 43.792,49.287 44.23,51.755 
		42.004,50.602 39.792,51.782 40.201,49.308 38.396,47.569 	"/>
	<polygon fill="#FFFBF1" points="57.125,47.569 58.221,45.314 59.343,47.556 61.827,47.901 60.042,49.662 60.48,52.13 
		58.254,50.977 56.042,52.157 56.451,49.683 54.646,47.944 	"/>
	<polygon fill="#FFFBF1" points="74.369,47.444 75.465,45.189 76.587,47.431 79.071,47.776 77.286,49.537 77.724,52.005 
		75.499,50.852 73.286,52.032 73.695,49.558 71.89,47.819 	"/>
	<polygon fill="#FFFBF1" points="90.124,47.569 91.22,45.314 92.343,47.556 94.826,47.901 93.041,49.662 93.479,52.13 
		91.254,50.977 89.042,52.157 89.451,49.683 87.645,47.944 	"/>
	<polygon fill="#FFFBF1" points="15.095,54.829 16.191,52.574 17.314,54.816 19.797,55.162 18.012,56.922 18.451,59.391 
		16.225,58.237 14.013,59.417 14.422,56.943 12.616,55.204 	"/>
	<polygon fill="#FFFBF1" points="31.75,54.833 32.846,52.579 33.969,54.82 36.452,55.166 34.667,56.927 35.105,59.395 32.88,58.241 
		30.667,59.421 31.077,56.948 29.271,55.208 	"/>
	<polygon fill="#FFFBF1" points="48.625,55.098 49.721,52.843 50.843,55.085 53.327,55.431 51.542,57.191 51.98,59.66 
		49.754,58.506 47.542,59.686 47.951,57.212 46.146,55.473 	"/>
	<polygon fill="#FFFBF1" points="64.999,54.833 66.095,52.579 67.218,54.82 69.701,55.166 67.916,56.927 68.354,59.395 
		66.129,58.241 63.917,59.421 64.326,56.948 62.52,55.208 	"/>
	<polygon fill="#FFFBF1" points="81.875,54.958 82.971,52.704 84.094,54.945 86.577,55.291 84.792,57.052 85.23,59.52 
		83.005,58.366 80.792,59.546 81.202,57.073 79.396,55.333 	"/>
	<polygon fill="#FFFBF1" points="6.666,61.387 7.762,59.132 8.885,61.374 11.368,61.72 9.583,63.48 10.021,65.949 7.796,64.795 
		5.583,65.975 5.993,63.501 4.187,61.762 	"/>
	<polygon fill="#FFFBF1" points="23.5,61.304 24.596,59.049 25.718,61.291 28.202,61.637 26.417,63.397 26.855,65.866 
		24.629,64.712 22.417,65.892 22.826,63.418 21.021,61.679 	"/>
	<polygon fill="#FFFBF1" points="40.75,61.179 41.846,58.924 42.968,61.166 45.452,61.512 43.667,63.272 44.105,65.741 
		41.879,64.587 39.667,65.767 40.076,63.293 38.271,61.554 	"/>
	<polygon fill="#FFFBF1" points="57,61.554 58.096,59.299 59.218,61.541 61.702,61.887 59.917,63.647 60.355,66.116 58.129,64.962 
		55.917,66.142 56.326,63.668 54.521,61.929 	"/>
	<polygon fill="#FFFBF1" points="74.244,61.429 75.34,59.174 76.462,61.416 78.946,61.762 77.161,63.522 77.599,65.991 
		75.374,64.837 73.161,66.017 73.57,63.543 71.765,61.804 	"/>
	<polygon fill="#FFFBF1" points="89.999,61.554 91.095,59.299 92.218,61.541 94.701,61.887 92.916,63.647 93.354,66.116 
		91.129,64.962 88.917,66.142 89.326,63.668 87.52,61.929 	"/>
</g>

</g>

</svg>
